<svg xmlns="http://www.w3.org/2000/svg" width="36" height="59pt" viewBox="0 0 27 59">
  <g fill-rule="evenodd" fill="#da4648">
    <path d="M13.378906 46.457031c-3.480468 0-6.171875-.515625-7.46875-.824219-.882812-.210937-1.59375-.425781-2.132812-.652343l1.726562 2.914062L6.175781 57c0 1.019531 3.28125 1.847656 7.332031 1.847656 4.046876 0 7.328126-.828125 7.328126-1.847656l.535156-9.203125 1.632812-2.824219c-.542968.226563-1.261718.449219-2.15625.660156-1.292968.308594-3.984375.824219-7.46875.824219zm9.679688-29.625c-2.554688.351563-5.949219.546875-9.550782.546875-3.605468 0-7-.195312-9.554687-.546875-1.265625-.175781-2.269531-.378906-2.976563-.613281-.171874-.054688-.457031-.148438-.734374-.296875l1.585937 14.402344c.074219-.25.15625-.496094.246094-.742188.1875-.507812.402343-1 .644531-1.484375.246094-.484375.511719-.941406.796875-1.371094.289063-.429687.59375-.824218.917969-1.1875.324218-.359374.65625-.671874 1-.933593.339844-.257813.683594-.464844 1.03125-.609375.351562-.148438.695312-.21875 1.035156-.21875.394531 0 .773438.105468 1.140625.316406.367187.214844.710937.558594 1.03125 1.03125.074219.109375.121094.214844.140625.324219.019531.109375.027344.210937.027344.308593 0 .226563-.054688.40625-.164063.539063-.109375.128906-.242187.195313-.390625.195313-.140625 0-.269531-.070313-.386718-.214844-.121094-.144532-.253907-.351563-.398438-.621094-.140625-.242188-.292969-.417969-.457031-.527344C7.875 25.023438 7.695312 24.96875 7.5 24.96875c-.300781 0-.625.121094-.96875.371094-.34375.246094-.683594.574218-1.019531.980468-.339844.410157-.660157.875-.972657 1.398438-.308593.523438-.582031 1.058594-.820312 1.609375-.234375.546875-.425781 1.089844-.566406 1.621094-.140625.535156-.210938 1.015625-.210938 1.4375 0 .144531.011719.289062.03125.4375.019532.148437.054688.285156.109375.40625.054688.121093.128907.222656.21875.300781.09375.078125.210938.117188.355469.117188.160156 0 .339844-.054688.542969-.160157.203125-.105469.414062-.246093.632812-.417969.21875-.171874.4375-.367187.660157-.582031.21875-.21875.425781-.4375.613281-.660156.191406-.222656.359375-.4375.507812-.640625.144531-.207031.257813-.386719.328125-.535156l.605469-1.785156c.074219-.191407.167969-.328126.289063-.410157.117187-.082031.238281-.121093.363281-.121093.0625 0 .121093.011718.183593.03125.058594.019531.113282.050781.160157.09375.050781.042968.085937.097656.113281.167968.03125.066406.042969.148438.042969.238282 0 .242187-.019531.46875-.0625.683593-.042969.210938-.101563.417969-.167969.621094-.066406.203125-.140625.40625-.222656.613281-.082032.203125-.164063.417969-.238282.640625-.019531.023438-.050781.105469-.09375.238281-.046874.132813-.101562.300782-.167968.503907-.0625.203125-.132813.429687-.210938.679687-.074218.25-.152344.503906-.230468.765625-.082032.261719-.160157.515625-.230469.765625-.074219.25-.140625.476563-.199219.679688-.058594.203125-.105469.371094-.144531.507812-.039063.136719-.0625.21875-.074219.246094-.019531.078125-.054688.167969-.101562.265625-.046876.101563-.105469.195313-.167969.28125-.066407.089844-.136719.164063-.214844.222656-.078125.058594-.15625.085938-.242187.085938-.136719 0-.238282-.046875-.300782-.136719-.0625-.089844-.09375-.257812-.09375-.5v-.105469c0-.035156.003906-.074219.007813-.113281.003906-.082031.035156-.234375.097656-.457031.058594-.222657.132813-.472657.214844-.753907.085937-.28125.175781-.574218.273437-.875.097656-.300781.183594-.570312.261719-.808593-.226563.253906-.476563.507812-.746094.757812-.265625.25-.539062.472657-.820312.675781-.28125.199219-.566407.359376-.851563.488282-.285156.125-.558594.1875-.824218.1875-.300782 0-.5625-.0625-.78125-.195313-.039063-.023437-.074219-.050781-.113282-.078125l.882813 9.132813c.230469.566406 4.546875 1.960937 10.242187 1.960937 5.699219 0 10.019532-1.394531 10.246094-1.964844l1.265625-10.855468c-.105469.097656-.207031.1875-.304687.28125-.363282.332031-.707032.617187-1.027344.859375-.324219.238281-.636719.425781-.945313.558593-.308593.128907-.636719.195313-.984375.195313-.328125 0-.582031-.070313-.761718-.210937-.179688-.140626-.269532-.335938-.269532-.585938v-.054688c0-.019531 0-.039062.007813-.066406.015625-.152344.082031-.324218.199219-.523437.117187-.195313.257812-.402344.421874-.613281.164063-.214844.339844-.429688.523438-.644532.1875-.21875.359375-.425781.515625-.621094.160156-.191406.289063-.371093.394531-.535156.101563-.160156.15625-.292968.15625-.394531 0-.058594-.023437-.105469-.066406-.144531-.042969-.035156-.113281-.050782-.214844-.050782-.171875 0-.351562.042969-.535156.132813-.183594.085937-.363281.207031-.542969.355469-.179687.148437-.355469.320312-.527343.511718-.167969.195313-.328126.394532-.476563.601563-.152344.207031-.285156.414063-.410156.625-.125.210937-.226563.402344-.316407.582031-.023437.054688-.0625.132813-.109374.234375-.046876.101563-.097657.214844-.15625.339844-.054688.128906-.113282.257813-.175782.390625-.0625.136719-.121094.261719-.171875.378906-.050781.121094-.097656.226563-.140625.320313-.039062.09375-.070312.160156-.085937.195312-.023438.042969-.058594.128907-.109375.257813-.046875.125-.105469.273437-.171875.441406-.0625.171875-.132813.347656-.203125.535156-.070313.1875-.136719.363282-.199219.53125-.0625.167969-.121094.3125-.167969.441406-.046875.125-.078125.210938-.089844.257813-.042968.132813-.09375.253906-.152343.371094-.058594.117187-.125.21875-.199219.308593-.078125.085938-.164062.160157-.261719.210938-.097656.054688-.207031.082031-.328125.082031-.152344 0-.28125-.039062-.382812-.113281-.101563-.070312-.152344-.210938-.152344-.417969 0-.101562.011719-.207031.039062-.3125.023438-.105469.058594-.210937.09375-.316406.039063-.101563.082032-.203125.121094-.300781.042969-.101563.078125-.195313.113282-.285156.234374-.507813.472656-1.015626.714843-1.523438.242188-.507812.472657-1.011719.695313-1.507812.046875-.105469.089844-.207032.136718-.308594-.015624.011718-.027343.023437-.042968.039062-.28125.265625-.558594.503906-.839844.707032-.277344.207031-.554688.371093-.828125.492187-.273437.121094-.542969.179687-.800781.179687-.175782 0-.324219-.027343-.445313-.082031-.117187-.054687-.214843-.132812-.285156-.226562-.070313-.097657-.121094-.210938-.152344-.34375-.007812-.042969-.015625-.089844-.023437-.136719-.074219.058594-.152344.113281-.230469.167969-.265625.1875-.53125.335937-.789063.453125-.257812.113281-.492187.167968-.699218.167968-.207032 0-.378906-.066406-.507813-.203124-.128906-.136719-.195312-.371094-.195312-.699219 0-.230469.035156-.503907.105469-.8125-.113282.199219-.253907.398437-.421876.601562-.167968.203125-.359374.386719-.578124.554688-.214844.164062-.457032.300781-.722657.402343-.269531.105469-.5625.15625-.878906.15625-.140625 0-.277344-.015624-.410156-.050781-.132813-.035156-.246094-.097656-.347657-.183593-.097656-.085938-.179687-.199219-.238281-.34375-.0625-.144532-.089843-.328126-.089843-.542969 0-.003907.007812-.082031.023437-.230469.019531-.152344.074219-.386719.167969-.707031.089844-.320313.234375-.738281.429687-1.25.195313-.507813.46875-1.128907.824219-1.859375.089844-.191406.195312-.328125.3125-.410156.121094-.085938.25-.128907.386719-.128907.058593 0 .121093.011719.1875.027344.066406.019531.125.046875.183593.085937.054688.035157.101563.085938.132813.144532.035156.054687.054687.125.054687.199218 0 .050782-.007812.097657-.019531.144532-.023437.085937-.070312.199218-.140625.335937-.070312.140625-.15625.300781-.25.480469-.09375.179688-.195312.371094-.300781.578125-.105469.207031-.203125.421875-.296875.648437-.089844.222657-.167969.445313-.230469.675782-.066406.230468-.101562.457031-.109375.671875 0 .09375.019532.175781.0625.25.042969.078125.113282.113281.214844.113281.28125 0 .546875-.089844.804688-.269531.253906-.183594.488281-.410157.707031-.679688.214843-.273437.410156-.5625.585937-.875.175782-.308593.320313-.59375.4375-.851562.082032-.171875.152344-.359375.214844-.554688.0625-.199219.132812-.378906.207031-.546875.074219-.167968.15625-.304687.25-.417968.097657-.109376.214844-.164063.359375-.164063.15625 0 .277344.054687.367188.171875.09375.117188.136718.257812.136718.417969 0 .089843-.027343.214843-.085937.375-.058594.160156-.132813.34375-.222656.546875-.085938.207031-.183594.425781-.285157.65625-.105468.234375-.203124.46875-.289062.710937-.089844.238281-.164062.472657-.222656.703125-.058594.230469-.085938.445313-.085938.644532 0 .179687.09375.273437.285156.273437.132813 0 .300782-.046875.5-.140625.199219-.089844.40625-.21875.625-.382812.054688-.039063.109376-.082032.164063-.128907.058594-.246093.132813-.476562.214844-.683593.152343-.394532.304687-.789063.460937-1.175782.15625-.390625.296875-.75.425782-1.070312l1.964843-4.894532c.078125-.199218.183594-.339843.316407-.417968.128906-.082032.261718-.121094.398437-.121094.132813 0 .253906.042969.367187.128906.109376.085938.164063.222656.164063.417969 0 .089844-.019531.183594-.054687.285156-.039063.101563-.085938.210938-.140626.328125-.109374.238282-.234374.527344-.386718.871094-.148438.34375-.308594.71875-.480469 1.125-.167969.402344-.34375.824219-.523437 1.261719-.179688.4375-.355469.863281-.523438 1.28125-.171875.414062-.332031.804687-.480469 1.179687-.148437.371094-.277343.691406-.386719.964844-.046874.117188-.09375.253906-.140624.40625-.042969.15625-.066407.292969-.066407.414062 0 .078126.011719.136719.039063.183594.027344.042969.074218.066406.148437.066406.089844 0 .203125-.03125.339844-.09375.136719-.0625.285156-.148437.441406-.25.15625-.105468.324219-.222656.492188-.355468.171875-.136719.339843-.273438.507812-.417969.171875-.144531.332031-.289063.484375-.433594.152344-.144531.292969-.277343.414063-.398437.027343-.027344.0625-.050782.097656-.066406.074219-.214844.140625-.425782.199219-.632813.035156-.089844.082031-.21875.140625-.386719.0625-.167968.132812-.332031.210937-.492187.074219-.164063.164063-.300781.261719-.421875.097656-.117188.199219-.179688.3125-.179688.175781 0 .300781.042969.378906.121094.074219.078125.113281.191406.113281.34375 0 .03125-.003906.078125-.011718.144531-.007813.066407-.019532.136719-.03125.207031-.015625.074219-.027344.144532-.042969.210938-.015625.066406-.027344.113281-.042969.144531.160156-.171875.332032-.34375.519532-.511719.1875-.171874.378906-.324218.578124-.460937.199219-.136719.402344-.246094.609376-.335937.207031-.082032.414062-.128907.621093-.128907.144531 0 .285157.023438.425781.0625.140626.039063.265626.101563.375.179688.109376.078125.199219.175781.269532.292969.070312.121093.101562.257812.101562.414062 0 .207031-.050781.429688-.15625.664062-.105468.238282-.238281.472657-.398437.710938-.160157.238281-.335938.46875-.519531.695312-.1875.222657-.359376.429688-.523438.613282-.160156.183594-.296875.339844-.40625.46875-.109375.128906-.167969.21875-.171875.261718 0 .0625.019531.113282.058594.148438.039062.039062.101562.058594.195312.058594.070313 0 .179688-.039063.320313-.121094.144531-.082031.34375-.222656.601562-.421875.257813-.199219.582032-.46875.980469-.804687.269531-.230469.585937-.503907.945313-.816407l1.714843-15.691406c-.277343.148437-.5625.242187-.734375.296875-.707031.234375-1.710937.4375-2.976562.613281zm-9.5625-3.722656c-7.414063 0-13.4218752.820313-13.4218752 1.828125 0 1.011719 6.0078122 1.832031 13.4218752 1.832031 7.414062 0 13.421875-.820312 13.421875-1.832031 0-1.007812-6.007813-1.828125-13.421875-1.828125zm5.359375 2.363281c0 .238282-.714844.429688-1.59375.429688-.882813 0-1.597657-.191406-1.597657-.429688 0-.234375.714844-.429687 1.597657-.429687.878906 0 1.59375.195312 1.59375.429687zm0 0"/>
    <path d="M15.988281 15.285156c-.007812.011719-.011719.023438-.011719.035156 0 .15625.574219.28125 1.285157.28125.707031 0 1.28125-.125 1.28125-.28125l1.679687-6.71875 6.667969-6.957031c.003906-.003906.003906-.003906.007813-.007812.140624-.15625-.144532-.644531-.621094-1.066407-.476563-.417968-.988282-.5585932-1.148438-.398437 0 0-.003906 0-.003906.003906l-7.117188 7.398438zm0 0"/>
  </g>
</svg>
