<svg xmlns="http://www.w3.org/2000/svg" width="500" height="449">
  <path d="M1.5 224c0 37.5 36.6 72.5 94.4 92.3-11.5 58-2 104.8 29.6 123 32.5 18.8 81 5.8 126.9-34.3 44.8 38.5 90 53.7 121.7 35.4 32.5-18.8 42.3-68.8 30.5-128.6 60.1-20 93.8-49.8 93.8-87.8 0-36.6-36.7-68.3-93.7-88 12.8-62.3 2-108-31-127-31.7-18.2-77.6-2.3-123 37.3C203.4 4.3 158-8.5 125 10.5 93.4 29 84.3 76.5 96 135.7 40.1 155 1.5 187.5 1.5 224z" fill="#FFF"/>
  <path d="M392.6 155.5c-4.7-1.6-9.4-3-14.2-4.4l2.2-9.7c10.8-52.2 3.7-94.2-20.3-108-23-13.3-60.6.5-98.7 33.6a295 295 0 00-11 10l-7.3-6.7C203.5 34.9 163.5 20 139.6 33.9c-23 13.3-29.9 52.8-20.2 102.3 1 4.9 2 9.7 3.3 14.6-5.7 1.6-11.1 3.3-16.3 5.1-46.8 16.3-76.6 41.8-76.6 68.3 0 27.3 32 54.8 80.7 71.4 4 1.3 8 2.6 12 3.7-1.4 5.2-2.5 10.5-3.5 15.8-9.3 48.5-2 87.1 20.9 100.3 23.7 13.7 63.4-.3 102.1-34.2 3.1-2.6 6.2-5.5 9.3-8.4 3.8 3.7 7.8 7.3 11.9 10.8 37.5 32.3 74.5 45.3 97.5 32 23.6-13.6 31.3-55 21.3-105.5-.7-3.9-1.6-7.8-2.6-11.8a259 259 0 008.2-2.6C438.2 279 471 252 471 224.2c0-26.6-30.8-52.3-78.5-68.7z" fill="#53C1DE"/>
  <path d="M381.7 277.8l-7.5 2.4a442.2 442.2 0 00-22.3-56 442 442 0 0021.5-55c4.5 1.3 8.9 2.7 13.1 4.2 40.8 14 65.7 34.8 65.7 50.8 0 17-26.9 39.2-70.5 53.6zm-18.2 36c4.4 22.2 5 42.4 2.2 58.2-2.7 14.1-8 23.6-14.5 27.3-13.9 8.1-43.6-2.4-75.7-30-3.7-3.1-7.4-6.5-11.1-10a442.9 442.9 0 0037-47c21.3-2 41.5-5 59.7-9.2a233 233 0 012.4 10.6zM180.2 398c-13.5 4.8-24.4 4.9-31 1.1-13.8-8-19.6-39-11.7-80.5 1-5 2-9.8 3.2-14.7 18 4 38 6.9 59.5 8.6 12.2 17.2 25 33 37.9 46.8a232 232 0 01-8.5 7.7 159.7 159.7 0 01-49.4 31zm-63.6-120.3C95 270.4 77.3 260.8 65 250.4c-11-9.4-16.5-18.7-16.5-26.2 0-16 24-36.6 64-50.5 5-1.7 10-3.3 15.1-4.8 5.6 18 12.8 36.8 21.6 55.8a458.7 458.7 0 00-21.8 56.5c-3.7-1-7.3-2.2-11-3.5zm21.3-145.1c-8.3-42.4-2.8-74.4 11.1-82.4 14.8-8.5 47.4 3.7 81.8 34.2l6.6 6.1a451.6 451.6 0 00-37.6 46.5c-20.7 2-40.6 5-58.8 9.1-1.2-4.5-2.2-9-3-13.5zm190.4 47c-4.3-7.5-8.8-14.9-13.4-22.1 14 1.8 27.5 4.1 40.2 7-3.8 12.2-8.5 25-14.1 38-4.1-7.7-8.3-15.4-12.7-23zM250.7 104a403 403 0 0126 31.3c-17.5-.8-34.9-.8-52.2 0a415.6 415.6 0 0126.2-31.3zm-78.2 75.7c-4.3 7.5-8.5 15-12.4 22.8-5.5-13-10.2-25.8-14-38.2 12.5-2.8 26-5.1 40-6.9-4.7 7.4-9.2 14.8-13.6 22.3zm14 112.6c-14.5-1.6-28.1-3.8-40.7-6.6 3.9-12.5 8.7-25.6 14.3-38.9a553.4 553.4 0 0026.4 45.5zm64.7 53.4c-9-9.6-17.9-20.2-26.6-31.7a658.2 658.2 0 0052.5-.1 400.8 400.8 0 01-26 31.8zm90-99.6A400 400 0 01356 285c-12.8 3-26.6 5.3-41.2 7a659.2 659.2 0 0026.4-45.8zm-29.2 14c-6.7 11.6-13.7 23-21.1 34.1a568.5 568.5 0 01-80.4.2 534.4 534.4 0 01-40.4-69.8 529.5 529.5 0 0140.2-69.6 534.4 534.4 0 0180.4 0 567.4 567.4 0 0140.3 69.4c-6 12.1-12.2 24-19 35.7zm39-210.4c14.7 8.5 20.4 42.8 11.2 87.9l-2 8.7a451.8 451.8 0 00-59-9.3 442.7 442.7 0 00-37.3-46.5 277 277 0 0110.1-9.3c32.6-28.4 63-39.5 77-31.5z" fill="#FFF"/>
  <path d="M250.4 184.8a39.4 39.4 0 110 78.8 39.4 39.4 0 010-78.8" fill="#53C1DE"/>
</svg>
