<svg xmlns="http://www.w3.org/2000/svg" width="500" height="375">
  <path d="M430.3 215.4A103 103 0 00385 226c-4.7-9.3-9.4-17.4-10.2-23.5-.9-7-2-11.3-.9-19.7 1.1-8.4 6-20.3 6-21.3-.1-.9-1-5.2-11.1-5.2-10.1-.1-18.8 1.9-19.8 4.5-1.7 9.2-20 41.7-30.5 58.8a60 60 0 01-7-17.2c-.9-7-2-11.3-.9-19.7 1.1-8.4 6-20.3 6-21.3-.1-.9-1-5.1-11.1-5.2-10-.1-18.8 2-19.8 4.5-1 2.7-2 9-4.2 15-6.2 21-30.6 75.3-37 89.4-3.2 7.3-6 13-8 17-2.1 3.8-.2.2-.4.6l-2.7 5.2c-1.4 2.5-2.8 4.9-3.5 4.9-.5 0-1.5-6.6.2-15.6 3.6-18.8 12.4-48.2 12.3-49.3 0-.5 1.6-5.6-5.7-8.3-7.1-2.6-9.6 1.8-10.2 1.8-.6 0-1.1 1.6-1.1 1.6s7.9-33.2-15.1-33.2c-14.5 0-34.4 15.8-44.3 30.1l-33.6 18.4-16.2 8.9-1-1.2c-28-29.8-79.7-50.9-77.5-91 .8-14.5 5.9-52.9 99.2-99.3 76.5-38.1 137.7-27.7 148.4-4.4 15 33.2-32.8 94.9-112.3 103.8-30.2 3.4-46.1-8.3-50.1-12.7-4.2-4.6-4.8-4.8-6.4-4-2.5 1.4-1 5.5 0 8 2.3 6.1 12.1 17 28.7 22.5 14.6 4.8 50.1 7.5 93-9.1C286.5 141 324 89.4 313 46c-11.2-44-84.3-58.5-153.3-34C118.6 26.8 74 49.6 42 79.6 4 115-2.1 146.2.4 159c8.9 46 72.3 76 97.6 98.1l-3.5 2c-12.7 6.2-61 31.5-73.1 58.3-13.7 30.3 2.1 52 12.7 55 32.6 9 66-7.3 84-34.1 18-26.9 15.9-61.7 7.6-77.7l-.3-.5 10-5.9c6.4-3.8 12.7-7.3 18.3-10.4-3.1 8.5-5.4 18.6-6.5 33.2-1.4 17.2 5.6 39.5 15 48.3 4 3.8 8.9 3.9 12 3.9 10.7 0 15.5-8.9 21-19.5 6.6-13 12.4-28 12.4-28s-7.3 40.7 12.7 40.7c7.3 0 14.7-9.5 18-14.4v.1l.6-1 1.1-1.8v-.2c3-5.1 9.5-16.7 19.3-36 12.6-24.8 24.7-55.8 24.7-55.8s1.2 7.6 4.8 20.1c2.1 7.4 6.8 15.5 10.4 23.4l-4.7 6.5h.1c-2.3 3.2-5 6.5-7.7 9.8-10 12-21.9 25.5-23.4 29.4-1.9 4.6-1.5 8 2.1 10.8 2.7 2 7.3 2.3 12.3 2 9-.7 15.3-2.9 18.4-4.3a63.6 63.6 0 0015.8-8.3 35.2 35.2 0 0015.1-31.1c-.2-7.5-2.7-15-5.7-22l2.6-3.9c15.5-22.6 27.4-47.4 27.4-47.4s1.1 7.7 4.8 20.2c1.8 6.3 5.5 13.2 8.8 20a86.8 86.8 0 00-26.6 34.5c-5.8 16.6-1.3 24.2 7.2 26 3.8.7 9.3-1 13.4-2.8 5-1.7 11.2-4.5 16.9-8.7 9.7-7.2 19.1-17.3 18.6-30.9-.3-6.2-2-12.4-4.2-18.2 12.3-5.1 28.3-8 48.5-5.6 43.4 5 52 32.2 50.4 43.6a29.2 29.2 0 01-13.8 19.5c-3 1.9-4 2.5-3.7 4 .4 2 1.7 1.9 4.4 1.5 3.6-.6 22.8-9.3 23.6-30.2 1.2-26.9-24.3-56.2-69.5-55.9zM95 328.4C80.8 344.1 60.5 350.1 52 345c-9.3-5.4-5.7-28.5 12-45.2a229.8 229.8 0 0133.9-25.3l8.8-5.4 1-.5 2.3-1.4c6.5 23.8.3 44.7-14.9 61.2zm105-71.4c-5 12.2-15.5 43.6-21.9 41.8-5.4-1.4-8.8-25.2-1-48.6 3.9-11.8 12.2-25.9 17-31.4 8-8.7 16.5-11.7 18.7-8 2.5 4.6-9.7 38.6-12.8 46.2zm86.6 41.4c-2.1 1.1-4 1.9-5 1.3-.6-.4 1-1.8 1-1.8s10.8-11.7 15-17l8.5-10.9v1.2c0 14-13.4 23.4-19.5 27.2zm66.8-15.2c-1.5-1.2-1.4-4.8 4-16.1 2-4.5 6.7-12 14.8-19.2 1 3 1.5 5.8 1.4 8.4 0 17.6-12.6 24.2-20.2 26.9z" fill="#CF649A"/>
</svg>
