<?xml version="1.0" encoding="UTF-8"?>
<svg xmlns="http://www.w3.org/2000/svg" xmlns:xlink="http://www.w3.org/1999/xlink" width="27pt" height="59pt" viewBox="0 0 27 59" version="1.1">
<g id="surface1">
<path style=" stroke:none;fill-rule:evenodd;fill:rgb(85.490196%,27.45098%,28.235294%);fill-opacity:1;" d="M 13.378906 46.457031 C 9.898438 46.457031 7.207031 45.941406 5.910156 45.632812 C 5.027344 45.421875 4.316406 45.207031 3.777344 44.980469 L 5.503906 47.894531 L 6.175781 57 C 6.175781 58.019531 9.457031 58.847656 13.507812 58.847656 C 17.554688 58.847656 20.835938 58.019531 20.835938 57 L 21.371094 47.796875 L 23.003906 44.972656 C 22.460938 45.199219 21.742188 45.421875 20.847656 45.632812 C 19.554688 45.941406 16.863281 46.457031 13.378906 46.457031 Z M 23.058594 16.832031 C 20.503906 17.183594 17.109375 17.378906 13.507812 17.378906 C 9.902344 17.378906 6.507812 17.183594 3.953125 16.832031 C 2.6875 16.65625 1.683594 16.453125 0.976562 16.21875 C 0.804688 16.164062 0.519531 16.070312 0.242188 15.921875 L 1.828125 30.324219 C 1.902344 30.074219 1.984375 29.828125 2.074219 29.582031 C 2.261719 29.074219 2.476562 28.582031 2.71875 28.097656 C 2.964844 27.613281 3.230469 27.15625 3.515625 26.726562 C 3.804688 26.296875 4.109375 25.902344 4.433594 25.539062 C 4.757812 25.179688 5.089844 24.867188 5.433594 24.605469 C 5.773438 24.347656 6.117188 24.140625 6.464844 23.996094 C 6.816406 23.847656 7.160156 23.777344 7.5 23.777344 C 7.894531 23.777344 8.273438 23.882812 8.640625 24.09375 C 9.007812 24.308594 9.351562 24.652344 9.671875 25.125 C 9.746094 25.234375 9.792969 25.339844 9.8125 25.449219 C 9.832031 25.558594 9.839844 25.660156 9.839844 25.757812 C 9.839844 25.984375 9.785156 26.164062 9.675781 26.296875 C 9.566406 26.425781 9.433594 26.492188 9.285156 26.492188 C 9.144531 26.492188 9.015625 26.421875 8.898438 26.277344 C 8.777344 26.132812 8.644531 25.925781 8.5 25.65625 C 8.359375 25.414062 8.207031 25.238281 8.042969 25.128906 C 7.875 25.023438 7.695312 24.96875 7.5 24.96875 C 7.199219 24.96875 6.875 25.089844 6.53125 25.339844 C 6.1875 25.585938 5.847656 25.914062 5.511719 26.320312 C 5.171875 26.730469 4.851562 27.195312 4.539062 27.71875 C 4.230469 28.242188 3.957031 28.777344 3.71875 29.328125 C 3.484375 29.875 3.292969 30.417969 3.152344 30.949219 C 3.011719 31.484375 2.941406 31.964844 2.941406 32.386719 C 2.941406 32.53125 2.953125 32.675781 2.972656 32.824219 C 2.992188 32.972656 3.027344 33.109375 3.082031 33.230469 C 3.136719 33.351562 3.210938 33.453125 3.300781 33.53125 C 3.394531 33.609375 3.511719 33.648438 3.65625 33.648438 C 3.816406 33.648438 3.996094 33.59375 4.199219 33.488281 C 4.402344 33.382812 4.613281 33.242188 4.832031 33.070312 C 5.050781 32.898438 5.269531 32.703125 5.492188 32.488281 C 5.710938 32.269531 5.917969 32.050781 6.105469 31.828125 C 6.296875 31.605469 6.464844 31.390625 6.613281 31.1875 C 6.757812 30.980469 6.871094 30.800781 6.941406 30.652344 L 7.546875 28.867188 C 7.621094 28.675781 7.714844 28.539062 7.835938 28.457031 C 7.953125 28.375 8.074219 28.335938 8.199219 28.335938 C 8.261719 28.335938 8.320312 28.347656 8.382812 28.367188 C 8.441406 28.386719 8.496094 28.417969 8.542969 28.460938 C 8.59375 28.503906 8.628906 28.558594 8.65625 28.628906 C 8.6875 28.695312 8.699219 28.777344 8.699219 28.867188 C 8.699219 29.109375 8.679688 29.335938 8.636719 29.550781 C 8.59375 29.761719 8.535156 29.96875 8.46875 30.171875 C 8.402344 30.375 8.328125 30.578125 8.246094 30.785156 C 8.164062 30.988281 8.082031 31.203125 8.007812 31.425781 C 7.988281 31.449219 7.957031 31.53125 7.914062 31.664062 C 7.867188 31.796875 7.8125 31.964844 7.746094 32.167969 C 7.683594 32.371094 7.613281 32.597656 7.535156 32.847656 C 7.460938 33.097656 7.382812 33.351562 7.304688 33.613281 C 7.222656 33.875 7.144531 34.128906 7.074219 34.378906 C 7 34.628906 6.933594 34.855469 6.875 35.058594 C 6.816406 35.261719 6.769531 35.429688 6.730469 35.566406 C 6.691406 35.703125 6.667969 35.785156 6.65625 35.8125 C 6.636719 35.890625 6.601562 35.980469 6.554688 36.078125 C 6.507812 36.179688 6.449219 36.273438 6.386719 36.359375 C 6.320312 36.449219 6.25 36.523438 6.171875 36.582031 C 6.09375 36.640625 6.015625 36.667969 5.929688 36.667969 C 5.792969 36.667969 5.691406 36.621094 5.628906 36.53125 C 5.566406 36.441406 5.535156 36.273438 5.535156 36.03125 L 5.535156 35.925781 C 5.535156 35.890625 5.539062 35.851562 5.542969 35.8125 C 5.546875 35.730469 5.578125 35.578125 5.640625 35.355469 C 5.699219 35.132812 5.773438 34.882812 5.855469 34.601562 C 5.941406 34.320312 6.03125 34.027344 6.128906 33.726562 C 6.226562 33.425781 6.3125 33.15625 6.390625 32.917969 C 6.164062 33.171875 5.914062 33.425781 5.644531 33.675781 C 5.378906 33.925781 5.105469 34.148438 4.824219 34.351562 C 4.542969 34.550781 4.257812 34.710938 3.972656 34.839844 C 3.6875 34.964844 3.414062 35.027344 3.148438 35.027344 C 2.847656 35.027344 2.585938 34.964844 2.367188 34.832031 C 2.328125 34.808594 2.292969 34.78125 2.253906 34.753906 L 3.136719 43.886719 C 3.367188 44.453125 7.683594 45.847656 13.378906 45.847656 C 19.078125 45.847656 23.398438 44.453125 23.625 43.882812 L 24.890625 33.027344 C 24.785156 33.125 24.683594 33.214844 24.585938 33.308594 C 24.222656 33.640625 23.878906 33.925781 23.558594 34.167969 C 23.234375 34.40625 22.921875 34.59375 22.613281 34.726562 C 22.304688 34.855469 21.976562 34.921875 21.628906 34.921875 C 21.300781 34.921875 21.046875 34.851562 20.867188 34.710938 C 20.6875 34.570312 20.597656 34.375 20.597656 34.125 L 20.597656 34.070312 C 20.597656 34.050781 20.597656 34.03125 20.605469 34.003906 C 20.621094 33.851562 20.6875 33.679688 20.804688 33.480469 C 20.921875 33.285156 21.0625 33.078125 21.226562 32.867188 C 21.390625 32.652344 21.566406 32.4375 21.75 32.222656 C 21.9375 32.003906 22.109375 31.796875 22.265625 31.601562 C 22.425781 31.410156 22.554688 31.230469 22.660156 31.066406 C 22.761719 30.90625 22.816406 30.773438 22.816406 30.671875 C 22.816406 30.613281 22.792969 30.566406 22.75 30.527344 C 22.707031 30.492188 22.636719 30.476562 22.535156 30.476562 C 22.363281 30.476562 22.183594 30.519531 22 30.609375 C 21.816406 30.695312 21.636719 30.816406 21.457031 30.964844 C 21.277344 31.113281 21.101562 31.285156 20.929688 31.476562 C 20.761719 31.671875 20.601562 31.871094 20.453125 32.078125 C 20.300781 32.285156 20.167969 32.492188 20.042969 32.703125 C 19.917969 32.914062 19.816406 33.105469 19.726562 33.285156 C 19.703125 33.339844 19.664062 33.417969 19.617188 33.519531 C 19.570312 33.621094 19.519531 33.734375 19.460938 33.859375 C 19.40625 33.988281 19.347656 34.117188 19.285156 34.25 C 19.222656 34.386719 19.164062 34.511719 19.113281 34.628906 C 19.0625 34.75 19.015625 34.855469 18.972656 34.949219 C 18.933594 35.042969 18.902344 35.109375 18.886719 35.144531 C 18.863281 35.1875 18.828125 35.273438 18.777344 35.402344 C 18.730469 35.527344 18.671875 35.675781 18.605469 35.84375 C 18.542969 36.015625 18.472656 36.191406 18.402344 36.378906 C 18.332031 36.566406 18.265625 36.742188 18.203125 36.910156 C 18.140625 37.078125 18.082031 37.222656 18.035156 37.351562 C 17.988281 37.476562 17.957031 37.5625 17.945312 37.609375 C 17.902344 37.742188 17.851562 37.863281 17.792969 37.980469 C 17.734375 38.097656 17.667969 38.199219 17.59375 38.289062 C 17.515625 38.375 17.429688 38.449219 17.332031 38.5 C 17.234375 38.554688 17.125 38.582031 17.003906 38.582031 C 16.851562 38.582031 16.722656 38.542969 16.621094 38.46875 C 16.519531 38.398438 16.46875 38.257812 16.46875 38.050781 C 16.46875 37.949219 16.480469 37.84375 16.507812 37.738281 C 16.53125 37.632812 16.566406 37.527344 16.601562 37.421875 C 16.640625 37.320312 16.683594 37.21875 16.722656 37.121094 C 16.765625 37.019531 16.800781 36.925781 16.835938 36.835938 C 17.070312 36.328125 17.308594 35.820312 17.550781 35.3125 C 17.792969 34.804688 18.023438 34.300781 18.246094 33.804688 C 18.292969 33.699219 18.335938 33.597656 18.382812 33.496094 C 18.367188 33.507812 18.355469 33.519531 18.339844 33.535156 C 18.058594 33.800781 17.78125 34.039062 17.5 34.242188 C 17.222656 34.449219 16.945312 34.613281 16.671875 34.734375 C 16.398438 34.855469 16.128906 34.914062 15.871094 34.914062 C 15.695312 34.914062 15.546875 34.886719 15.425781 34.832031 C 15.308594 34.777344 15.210938 34.699219 15.140625 34.605469 C 15.070312 34.507812 15.019531 34.394531 14.988281 34.261719 C 14.980469 34.21875 14.972656 34.171875 14.964844 34.125 C 14.890625 34.183594 14.8125 34.238281 14.734375 34.292969 C 14.46875 34.480469 14.203125 34.628906 13.945312 34.746094 C 13.6875 34.859375 13.453125 34.914062 13.246094 34.914062 C 13.039062 34.914062 12.867188 34.847656 12.738281 34.710938 C 12.609375 34.574219 12.542969 34.339844 12.542969 34.011719 C 12.542969 33.78125 12.578125 33.507812 12.648438 33.199219 C 12.535156 33.398438 12.394531 33.597656 12.226562 33.800781 C 12.058594 34.003906 11.867188 34.1875 11.648438 34.355469 C 11.433594 34.519531 11.191406 34.65625 10.925781 34.757812 C 10.65625 34.863281 10.363281 34.914062 10.046875 34.914062 C 9.90625 34.914062 9.769531 34.898438 9.636719 34.863281 C 9.503906 34.828125 9.390625 34.765625 9.289062 34.679688 C 9.191406 34.59375 9.109375 34.480469 9.050781 34.335938 C 8.988281 34.191406 8.960938 34.007812 8.960938 33.792969 C 8.960938 33.789062 8.96875 33.710938 8.984375 33.5625 C 9.003906 33.410156 9.058594 33.175781 9.152344 32.855469 C 9.242188 32.535156 9.386719 32.117188 9.582031 31.605469 C 9.777344 31.097656 10.050781 30.476562 10.40625 29.746094 C 10.496094 29.554688 10.601562 29.417969 10.71875 29.335938 C 10.839844 29.25 10.96875 29.207031 11.105469 29.207031 C 11.164062 29.207031 11.226562 29.21875 11.292969 29.234375 C 11.359375 29.253906 11.417969 29.28125 11.476562 29.320312 C 11.53125 29.355469 11.578125 29.40625 11.609375 29.464844 C 11.644531 29.519531 11.664062 29.589844 11.664062 29.664062 C 11.664062 29.714844 11.65625 29.761719 11.644531 29.808594 C 11.621094 29.894531 11.574219 30.007812 11.503906 30.144531 C 11.433594 30.285156 11.347656 30.445312 11.253906 30.625 C 11.160156 30.804688 11.058594 30.996094 10.953125 31.203125 C 10.847656 31.410156 10.75 31.625 10.65625 31.851562 C 10.566406 32.074219 10.488281 32.296875 10.425781 32.527344 C 10.359375 32.757812 10.324219 32.984375 10.316406 33.199219 C 10.316406 33.292969 10.335938 33.375 10.378906 33.449219 C 10.421875 33.527344 10.492188 33.5625 10.59375 33.5625 C 10.875 33.5625 11.140625 33.472656 11.398438 33.292969 C 11.652344 33.109375 11.886719 32.882812 12.105469 32.613281 C 12.320312 32.339844 12.515625 32.050781 12.691406 31.738281 C 12.867188 31.429688 13.011719 31.144531 13.128906 30.886719 C 13.210938 30.714844 13.28125 30.527344 13.34375 30.332031 C 13.40625 30.132812 13.476562 29.953125 13.550781 29.785156 C 13.625 29.617188 13.707031 29.480469 13.800781 29.367188 C 13.898438 29.257812 14.015625 29.203125 14.160156 29.203125 C 14.316406 29.203125 14.4375 29.257812 14.527344 29.375 C 14.621094 29.492188 14.664062 29.632812 14.664062 29.792969 C 14.664062 29.882812 14.636719 30.007812 14.578125 30.167969 C 14.519531 30.328125 14.445312 30.511719 14.355469 30.714844 C 14.269531 30.921875 14.171875 31.140625 14.070312 31.371094 C 13.964844 31.605469 13.867188 31.839844 13.78125 32.082031 C 13.691406 32.320312 13.617188 32.554688 13.558594 32.785156 C 13.5 33.015625 13.472656 33.230469 13.472656 33.429688 C 13.472656 33.609375 13.566406 33.703125 13.757812 33.703125 C 13.890625 33.703125 14.058594 33.65625 14.257812 33.5625 C 14.457031 33.472656 14.664062 33.34375 14.882812 33.179688 C 14.9375 33.140625 14.992188 33.097656 15.046875 33.050781 C 15.105469 32.804688 15.179688 32.574219 15.261719 32.367188 C 15.414062 31.972656 15.566406 31.578125 15.722656 31.191406 C 15.878906 30.800781 16.019531 30.441406 16.148438 30.121094 L 18.113281 25.226562 C 18.191406 25.027344 18.296875 24.886719 18.429688 24.808594 C 18.558594 24.726562 18.691406 24.6875 18.828125 24.6875 C 18.960938 24.6875 19.082031 24.730469 19.195312 24.816406 C 19.304688 24.902344 19.359375 25.039062 19.359375 25.234375 C 19.359375 25.324219 19.339844 25.417969 19.304688 25.519531 C 19.265625 25.621094 19.21875 25.730469 19.164062 25.847656 C 19.054688 26.085938 18.929688 26.375 18.777344 26.71875 C 18.628906 27.0625 18.46875 27.4375 18.296875 27.84375 C 18.128906 28.246094 17.953125 28.667969 17.773438 29.105469 C 17.59375 29.542969 17.417969 29.96875 17.25 30.386719 C 17.078125 30.800781 16.917969 31.191406 16.769531 31.566406 C 16.621094 31.9375 16.492188 32.257812 16.382812 32.53125 C 16.335938 32.648438 16.289062 32.785156 16.242188 32.9375 C 16.199219 33.09375 16.175781 33.230469 16.175781 33.351562 C 16.175781 33.429688 16.1875 33.488281 16.214844 33.535156 C 16.242188 33.578125 16.289062 33.601562 16.363281 33.601562 C 16.453125 33.601562 16.566406 33.570312 16.703125 33.507812 C 16.839844 33.445312 16.988281 33.359375 17.144531 33.257812 C 17.300781 33.152344 17.46875 33.035156 17.636719 32.902344 C 17.808594 32.765625 17.976562 32.628906 18.144531 32.484375 C 18.316406 32.339844 18.476562 32.195312 18.628906 32.050781 C 18.78125 31.90625 18.921875 31.773438 19.042969 31.652344 C 19.070312 31.625 19.105469 31.601562 19.140625 31.585938 C 19.214844 31.371094 19.28125 31.160156 19.339844 30.953125 C 19.375 30.863281 19.421875 30.734375 19.480469 30.566406 C 19.542969 30.398438 19.613281 30.234375 19.691406 30.074219 C 19.765625 29.910156 19.855469 29.773438 19.953125 29.652344 C 20.050781 29.535156 20.152344 29.472656 20.265625 29.472656 C 20.441406 29.472656 20.566406 29.515625 20.644531 29.59375 C 20.71875 29.671875 20.757812 29.785156 20.757812 29.9375 C 20.757812 29.96875 20.753906 30.015625 20.746094 30.082031 C 20.738281 30.148438 20.726562 30.21875 20.714844 30.289062 C 20.699219 30.363281 20.6875 30.433594 20.671875 30.5 C 20.65625 30.566406 20.644531 30.613281 20.628906 30.644531 C 20.789062 30.472656 20.960938 30.300781 21.148438 30.132812 C 21.335938 29.960938 21.527344 29.808594 21.726562 29.671875 C 21.925781 29.535156 22.128906 29.425781 22.335938 29.335938 C 22.542969 29.253906 22.75 29.207031 22.957031 29.207031 C 23.101562 29.207031 23.242188 29.230469 23.382812 29.269531 C 23.523438 29.308594 23.648438 29.371094 23.757812 29.449219 C 23.867188 29.527344 23.957031 29.625 24.027344 29.742188 C 24.097656 29.863281 24.128906 30 24.128906 30.15625 C 24.128906 30.363281 24.078125 30.585938 23.972656 30.820312 C 23.867188 31.058594 23.734375 31.292969 23.574219 31.53125 C 23.414062 31.769531 23.238281 32 23.054688 32.226562 C 22.867188 32.449219 22.695312 32.65625 22.53125 32.839844 C 22.371094 33.023438 22.234375 33.179688 22.125 33.308594 C 22.015625 33.4375 21.957031 33.527344 21.953125 33.570312 C 21.953125 33.632812 21.972656 33.683594 22.011719 33.71875 C 22.050781 33.757812 22.113281 33.777344 22.207031 33.777344 C 22.277344 33.777344 22.386719 33.738281 22.527344 33.65625 C 22.671875 33.574219 22.871094 33.433594 23.128906 33.234375 C 23.386719 33.035156 23.710938 32.765625 24.109375 32.429688 C 24.378906 32.199219 24.695312 31.925781 25.054688 31.613281 L 26.769531 15.921875 C 26.492188 16.070312 26.207031 16.164062 26.035156 16.21875 C 25.328125 16.453125 24.324219 16.65625 23.058594 16.832031 Z M 13.496094 13.109375 C 6.082031 13.109375 0.0742188 13.929688 0.0742188 14.9375 C 0.0742188 15.949219 6.082031 16.769531 13.496094 16.769531 C 20.910156 16.769531 26.917969 15.949219 26.917969 14.9375 C 26.917969 13.929688 20.910156 13.109375 13.496094 13.109375 Z M 18.855469 15.472656 C 18.855469 15.710938 18.140625 15.902344 17.261719 15.902344 C 16.378906 15.902344 15.664062 15.710938 15.664062 15.472656 C 15.664062 15.238281 16.378906 15.042969 17.261719 15.042969 C 18.140625 15.042969 18.855469 15.238281 18.855469 15.472656 Z M 18.855469 15.472656 "/>
<path style=" stroke:none;fill-rule:evenodd;fill:rgb(85.490196%,27.45098%,28.235294%);fill-opacity:1;" d="M 15.988281 15.285156 C 15.980469 15.296875 15.976562 15.308594 15.976562 15.320312 C 15.976562 15.476562 16.550781 15.601562 17.261719 15.601562 C 17.96875 15.601562 18.542969 15.476562 18.542969 15.320312 L 20.222656 8.601562 L 26.890625 1.644531 C 26.894531 1.640625 26.894531 1.640625 26.898438 1.636719 C 27.039062 1.480469 26.753906 0.992188 26.277344 0.570312 C 25.800781 0.152344 25.289062 0.0117188 25.128906 0.171875 C 25.128906 0.171875 25.125 0.171875 25.125 0.175781 L 18.007812 7.574219 Z M 15.988281 15.285156 "/>
</g>
</svg>
